<?xml version="1.0" encoding="UTF-8"?><svg xmlns="http://www.w3.org/2000/svg" xmlns:xlink="http://www.w3.org/1999/xlink" id="Layer_163286b700a243" viewBox="0 0 2560.18 1210.58" aria-hidden="true" width="2560px" height="1210px"><defs><linearGradient class="cerosgradient" data-cerosgradient="true" id="CerosGradient_idb1f620bf5" gradientUnits="userSpaceOnUse" x1="50%" y1="100%" x2="50%" y2="0%"><stop offset="0%" stop-color="#d1d1d1"/><stop offset="100%" stop-color="#d1d1d1"/></linearGradient><linearGradient/><style>.cls-1-63286b700a243,.cls-2-63286b700a243{fill:none;}.cls-3-63286b700a243{clip-path:url(#clippath63286b700a243);}.cls-2-63286b700a243{stroke:#221f20;stroke-miterlimit:10;}</style><clipPath id="clippath63286b700a243"><path class="cls-1-63286b700a243" d="M447.51,93.67c-79.09,27.37-141.79,75.09-202.61,121.8-59.94,46.03-120.44,92.6-164.75,147.67C25.73,430.76-2.37,510.09,.16,589.01c2.05,63.98,31.66,135,108.13,163.65,30.58,11.46,66.54,15.2,93.42,31.02,29.38,17.29,42.23,45.47,55.51,71.61,56.98,112.17,160.29,221.46,313.95,255.8,126.11,28.19,262.11,1.14,393,11.5,131.04,10.38,251.14,57.61,377.87,84.63,10.74,2.29,22.04,4.45,32.97,2.72,15.89-2.52,27.36-12.55,37.71-21.92,64.73-58.59,137.07-115.85,230.37-145.91,126.87-40.88,273.81-25.82,406.5-54.55,165.05-35.74,290.43-134.54,401.13-232.87,36.31-32.25,72.54-65.6,93.28-104.81,20.74-39.21,23.96-85.8-4.71-122.1-24.5-31.02-68.05-50.32-109.78-68.31-102.3-44.11-213.61-96.83-243.46-182.31-8.26-23.65-10.35-49.89-31.05-68.8-16.2-14.8-41.38-22.49-66.38-26.46-85.35-13.56-172.25,9.75-257.37,24.09-85.12,14.34-185.06,16.88-248.1-28.26-46.89-33.57-63.01-87.04-113.9-117.18-27.49-16.28-62.25-23.89-96.52-29.41-110.3-17.77-225.74-17.47-335.87,.89-98.97,16.5-188.29,1.07-284.99,14.2-101.51,13.79-209.23,14.51-304.35,47.43Z"/></clipPath></defs><g class="cls-3-63286b700a243"><g><rect class="cls-2-63286b700a243" x="1098.21" y="405.53" width="361.87" height="361.21"/><rect class="cls-2-63286b700a243" x="1068.47" y="392.46" width="421.36" height="386.46"/><rect class="cls-2-63286b700a243" x="1038.72" y="379.4" width="480.84" height="411.72"/><rect class="cls-2-63286b700a243" x="1008.98" y="366.33" width="540.33" height="436.97"/><rect class="cls-2-63286b700a243" x="979.24" y="353.26" width="599.82" height="462.23"/><rect class="cls-2-63286b700a243" x="949.49" y="340.2" width="659.3" height="487.48"/><rect class="cls-2-63286b700a243" x="919.75" y="327.13" width="718.79" height="512.73"/><rect class="cls-2-63286b700a243" x="890.01" y="314.07" width="778.27" height="537.99"/><rect class="cls-2-63286b700a243" x="860.26" y="301" width="837.76" height="563.24"/><rect class="cls-2-63286b700a243" x="830.52" y="287.94" width="897.25" height="588.49"/><rect class="cls-2-63286b700a243" x="800.78" y="274.87" width="956.73" height="613.75"/><rect class="cls-2-63286b700a243" x="771.03" y="261.81" width="1016.22" height="639"/><rect class="cls-2-63286b700a243" x="741.29" y="248.74" width="1075.71" height="664.25"/><rect class="cls-2-63286b700a243" x="711.55" y="235.68" width="1135.19" height="689.51"/><rect class="cls-2-63286b700a243" x="681.8" y="222.61" width="1194.68" height="714.76"/><rect class="cls-2-63286b700a243" x="652.06" y="209.55" width="1254.17" height="740.01"/><rect class="cls-2-63286b700a243" x="622.32" y="196.48" width="1313.65" height="765.27"/><rect class="cls-2-63286b700a243" x="592.57" y="183.41" width="1373.14" height="790.52"/><rect class="cls-2-63286b700a243" x="562.83" y="170.35" width="1432.63" height="815.77"/><rect class="cls-2-63286b700a243" x="533.09" y="157.28" width="1492.11" height="841.03"/><rect class="cls-2-63286b700a243" x="503.34" y="144.22" width="1551.6" height="866.28"/><rect class="cls-2-63286b700a243" x="473.6" y="131.15" width="1611.09" height="891.53"/><rect class="cls-2-63286b700a243" x="443.86" y="118.09" width="1670.57" height="916.79"/><rect class="cls-2-63286b700a243" x="414.11" y="105.02" width="1730.06" height="942.04"/><rect class="cls-2-63286b700a243" x="384.37" y="91.96" width="1789.55" height="967.29"/><rect class="cls-2-63286b700a243" x="354.63" y="78.89" width="1849.03" height="992.55"/><rect class="cls-2-63286b700a243" x="324.88" y="65.83" width="1908.52" height="1017.8"/><rect class="cls-2-63286b700a243" x="295.14" y="52.76" width="1968.01" height="1043.06"/><rect class="cls-2-63286b700a243" x="265.4" y="39.7" width="2027.49" height="1068.31"/><rect class="cls-2-63286b700a243" x="235.65" y="26.63" width="2086.98" height="1093.56"/><rect class="cls-2-63286b700a243" x="205.91" y="13.57" width="2146.47" height="1118.82"/><rect class="cls-2-63286b700a243" x="176.17" y=".5" width="2205.95" height="1144.07"/></g></g></svg>