<?xml version="1.0" encoding="UTF-8"?><svg id="Layer_1" xmlns="http://www.w3.org/2000/svg" xmlns:xlink="http://www.w3.org/1999/xlink" viewBox="0 0 2529.99 2313.79"><defs><style>.cls-1,.cls-2{fill:none;}.cls-3{clip-path:url(#clippath);}.cls-2{stroke:#221f20;stroke-miterlimit:10;}</style><clipPath id="clippath"><path class="cls-1" d="M52.41,1569.91c151.08-73.21,344.11-91.91,513.75-49.76,35.72,8.88,71.31,20.75,98.05,41.18,40,30.56,54.73,75.67,87.19,111.21,68.85,75.39,200.44,93.93,318.43,106.34,42.26,4.45,85.49,8.88,127.26,2.17,40.18-6.45,76.94-22.91,117.36-28.4,75.95-10.31,151.61,19.59,212.35,56.45,60.74,36.85,114.12,81.86,181.99,110.24,102.85,43.01,225.54,42.69,342.37,41.31,51.12-.6,103.19-1.32,151.7-13.87s93.77-39.03,110.32-76.57c9.45-21.45,8.98-44.8,16.58-66.68,15.01-43.21,59.4-76.2,85.36-116.16,35.88-55.24,34.53-119.86,47.08-180.95,13.65-66.44,44.38-130.22,57.79-196.69,10.52-52.14,10.22-105.17,9.91-157.94-.47-77.71-.93-155.42-1.4-233.13-.2-33.58-.52-67.74-13.43-99.79-28.02-69.53-110.52-118.57-144.37-186.51-65.97,5.99-126.85-27.91-192.72-34.58-47.67-4.83-95.53,4.81-142.55,12.57-152.12,25.12-310.77,31.08-463.26,7.36-130.95-20.37-255.01-62.07-385.4-84.5-255.73-44-532.42-9.75-757.82,93.81-100.72,46.28-195.9,111.15-227.92,198.52-24.45,66.74-9.09,137.71-2.37,206.9,6.29,64.72,4.82,129.89-4.39,194.4-3.41,23.87-8.01,48.03-20.78,69.9-27.81,47.61-89.28,77.16-132.39,117.32-43.12,40.16-62.11,108.73-7.58,139.41-.64-19.28-8.85-38.37-23.25-54.09"/></clipPath></defs><g class="cls-3"><g><g><line class="cls-2" x1="75.54" y1="1247.67" x2="2382.2" y2="1066.13"/><line class="cls-2" x1="86.22" y1="1337.88" x2="2371.52" y2="975.92"/><line class="cls-2" x1="103.94" y1="1426.97" x2="2353.8" y2="886.82"/><line class="cls-2" x1="128.6" y1="1514.4" x2="2329.14" y2="799.4"/><line class="cls-2" x1="160.04" y1="1599.62" x2="2297.7" y2="714.17"/><line class="cls-2" x1="1228.87" y1="1156.9" x2="2259.67" y2="631.68"/><line class="cls-2" x1="198.07" y1="1682.12" x2="1228.87" y2="1156.9"/><line class="cls-2" x1="1228.87" y1="1156.9" x2="2215.29" y2="552.42"/><line class="cls-2" x1="242.45" y1="1761.37" x2="1228.87" y2="1156.9"/><line class="cls-2" x1="292.92" y1="1836.9" x2="2164.82" y2="476.89"/><line class="cls-2" x1="349.16" y1="1908.24" x2="2108.58" y2="405.55"/><line class="cls-2" x1="410.82" y1="1974.95" x2="2046.92" y2="338.85"/><line class="cls-2" x1="477.53" y1="2036.61" x2="1980.21" y2="277.19"/><line class="cls-2" x1="548.86" y1="2092.85" x2="1908.88" y2="220.95"/><line class="cls-2" x1="624.39" y1="2143.31" x2="1833.35" y2="170.48"/><line class="cls-2" x1="703.65" y1="2187.7" x2="1754.09" y2="126.09"/><line class="cls-2" x1="786.14" y1="2225.73" x2="1671.6" y2="88.06"/><line class="cls-2" x1="871.37" y1="2257.17" x2="1586.37" y2="56.62"/><line class="cls-2" x1="958.8" y1="2281.83" x2="1498.94" y2="31.97"/><line class="cls-2" x1="1047.89" y1="2299.55" x2="1409.85" y2="14.24"/><line class="cls-2" x1="1138.1" y1="2310.23" x2="1319.64" y2="3.57"/><line class="cls-2" x1="1228.87" y1="2313.79" x2="1228.87"/><line class="cls-2" x1="1319.64" y1="2310.23" x2="1138.1" y2="3.57"/><line class="cls-2" x1="1409.85" y1="2299.55" x2="1047.89" y2="14.24"/><line class="cls-2" x1="1498.94" y1="2281.83" x2="958.8" y2="31.97"/><line class="cls-2" x1="1586.37" y1="2257.17" x2="871.37" y2="56.62"/><line class="cls-2" x1="1671.6" y1="2225.73" x2="786.14" y2="88.06"/><line class="cls-2" x1="1754.09" y1="2187.7" x2="703.65" y2="126.09"/><line class="cls-2" x1="1833.35" y1="2143.31" x2="624.39" y2="170.48"/><line class="cls-2" x1="1908.88" y1="2092.85" x2="548.86" y2="220.95"/><line class="cls-2" x1="1980.21" y1="2036.61" x2="477.53" y2="277.19"/><line class="cls-2" x1="2046.92" y1="1974.95" x2="410.82" y2="338.85"/><line class="cls-2" x1="2108.58" y1="1908.24" x2="349.16" y2="405.55"/><line class="cls-2" x1="2164.82" y1="1836.9" x2="292.92" y2="476.89"/><line class="cls-2" x1="2215.29" y1="1761.37" x2="242.45" y2="552.42"/><line class="cls-2" x1="2259.67" y1="1682.12" x2="198.07" y2="631.68"/><line class="cls-2" x1="2297.7" y1="1599.62" x2="160.04" y2="714.17"/><line class="cls-2" x1="2329.14" y1="1514.4" x2="128.6" y2="799.4"/><line class="cls-2" x1="2353.8" y1="1426.97" x2="103.94" y2="886.82"/><line class="cls-2" x1="2371.52" y1="1337.88" x2="86.22" y2="975.92"/><line class="cls-2" x1="2382.2" y1="1247.67" x2="75.54" y2="1066.13"/></g><line class="cls-2" x1="75.54" y1="1156.98" x2="2382.2" y2="1156.98"/></g></g></svg>