<?xml version="1.0" encoding="UTF-8"?><svg xmlns="http://www.w3.org/2000/svg" id="Layer_16327bc7465951" viewBox="0 0 576.47 180.68" aria-hidden="true" width="576px" height="180px"><defs><linearGradient class="cerosgradient" data-cerosgradient="true" id="CerosGradient_ide1c19ad35" gradientUnits="userSpaceOnUse" x1="50%" y1="100%" x2="50%" y2="0%"><stop offset="0%" stop-color="#d1d1d1"/><stop offset="100%" stop-color="#d1d1d1"/></linearGradient><linearGradient/><style>.cls-1-6327bc7465951{font-family:IBMPlexSans, 'IBM Plex Sans';font-size:16.38px;}.cls-2-6327bc7465951{fill:none;stroke:#000;stroke-miterlimit:10;stroke-width:.75px;}.cls-3-6327bc7465951{opacity:.3;}</style></defs><text class="cls-1-6327bc7465951" transform="translate(0 176.66)"><tspan x="0" y="0">2020</tspan></text><text class="cls-1-6327bc7465951" transform="translate(179.06 176.66)"><tspan x="0" y="0">2030</tspan></text><text class="cls-1-6327bc7465951" transform="translate(358.11 176.66)"><tspan x="0" y="0">2040</tspan></text><text class="cls-1-6327bc7465951" transform="translate(537.17 176.66)"><tspan x="0" y="0">2050</tspan></text><g><path class="cls-3-6327bc7465951" d="M111.45,145.21h-.75v-3h.75v3Zm0-6h-.75v-3h.75v3Zm0-6h-.75v-3h.75v3Zm0-6h-.75v-3h.75v3Zm0-6h-.75v-3h.75v3Zm0-6h-.75v-3h.75v3Zm0-6h-.75v-3h.75v3Zm0-6h-.75v-3h.75v3Zm0-6h-.75v-3h.75v3Z"/><path class="cls-3-6327bc7465951" d="M557.19,146.21h-.75v-3h.75v3Zm0-6h-.75v-3h.75v3Zm0-6h-.75v-3h.75v3Zm0-6h-.75v-3h.75v3Zm0-6h-.75v-3h.75v3Zm0-6h-.75v-3h.75v3Zm0-6h-.75v-3h.75v3Zm0-6h-.75v-3h.75v3Zm0-6h-.75v-3h.75v3Z"/><line class="cls-2-6327bc7465951" x1="19.65" y1="144.39" x2="556.05" y2="144.39"/><line class="cls-2-6327bc7465951" x1="19.65" y1="133.74" x2="19.65" y2="156.68"/><line class="cls-2-6327bc7465951" x1="198.71" y1="133.74" x2="198.71" y2="156.68"/><line class="cls-2-6327bc7465951" x1="377.76" y1="133.74" x2="377.76" y2="156.68"/><line class="cls-2-6327bc7465951" x1="556.82" y1="133.74" x2="556.82" y2="156.68"/><line class="cls-2-6327bc7465951" x1="48.58" y1="155.86" x2="48.58" y2="132.92"/><path class="cls-2-6327bc7465951" d="M111.9,79.17c.67-2.62,1.16-4.44,1.61-6.27,5.08-20.41,19.96-31.64,45.9-34.22,7.49-.75,15.09-1.03,22.64-1.08,32.3-.23,64.59-.25,96.89-.45,4.15-.03,8.31-.52,12.43-1.02,21.13-2.52,33.2-12.9,39.06-28.61,.69-1.84,1.38-3.68,2.42-6.46,.9,2.37,1.46,3.75,1.96,5.15,7.53,21.07,21.33,30.22,48.94,30.82,29.34,.63,58.72,.32,88.07,.56,11.42,.09,22.93-.05,34.24,.99,27.51,2.52,41.25,12.89,47.07,34.39,.5,1.84,1.01,3.68,1.52,5.53"/></g></svg>